{"title":"Formula.1.2016x15.Singapore.Teds.Qualifying.Notebook.SkyF1.1080p","uid":15854361,"size":1387236253,"categoryP":"video","categoryS":"other","magnet":"?xt=urn:btih:7a3f229d4c5fd4e34a3917e53cf4b740485ec25c&amp;dn=Formula.1.2016x15.Singapore.Teds.Qualifying.Notebook.SkyF1.1080p&amp;tr=udp%3A%2F%2Ftracker.leechers-paradise.org%3A6969&amp;tr=udp%3A%2F%2Fzer0day.ch%3A1337&amp;tr=udp%3A%2F%2Fopen.demonii.com%3A1337&amp;tr=udp%3A%2F%2Ftracker.coppersurfer.tk%3A6969&amp;tr=udp%3A%2F%2Fexodus.desync.com%3A6969","seeders":10,"leechers":2,"uploader":"GaYoonFan","files":1,"time":1474219969,"description":"Formula.1.2016x15.Singapore.Teds.Qualifying.Notebook.SkyF1HD.1080p50-smcgill1969:\r\n\r\nTed Kravitz gives his analysis on the day's qualifying at the 2016 Singapore Grand Prix at Marina Bay Street Circuit.\r\n\r\n Video\r\n ID : 1\r\n Format : AVC\r\n Format/Info : Advanced Video Codec\r\n Format profile :   \r\n Format settings, CABAC : Yes\r\n Format settings, ReFrames : 2 frames\r\n Format settings, GOP : M=3, N=24\r\n Codec ID : avc1\r\n Codec ID/Info : Advanced Video Coding\r\n Duration : 29mn 34s\r\n Duration_FirstFrame : 4ms\r\n Bit rate mode : Variable\r\n Bit rate : 5 990 Kbps\r\n Maximum bit rate : 12.4 Mbps\r\n Width : 1 920 pixels\r\n Height : 1 080 pixels\r\n Original height : 1 088 pixels\r\n Display aspect ratio : 16:9\r\n Original display aspect ratio : 16:9\r\n Frame rate mode : Constant\r\n Frame rate : 50.000 fps\r\n Color space : YUV\r\n Chroma subsampling : 4:2:0\r\n Bit depth : 8 bits\r\n Scan type : Progressive\r\n Bits/(Pixel*Frame) : 0.058\r\n Stream size : 1.24 GiB (96%)\r\n Language : English\r\n Encoded date : UTC 2016-09-17 17:33:47\r\n Tagged date : UTC 2016-09-17 18:04:04\r\n\r\n Audio\r\n ID : 2\r\n Format : AAC\r\n Format/Info : Advanced Audio Codec\r\n Format profile : LC\r\n Codec ID : 40\r\n Duration : 29mn 34s\r\n Bit rate mode : Constant\r\n Bit rate : 256 Kbps\r\n Channel(s) : 2 channels\r\n Channel positions : Front: L R\r\n Sampling rate : 48.0 KHz\r\n Frame rate : 46.875 fps (1024 spf)\r\n Compression mode : Lossy\r\n Stream size : 53.6 MiB (4%)\r\n Language : English\r\n Encoded date : UTC 2016-09-17 17:33:47\r\n Tagged date : UTC 2016-09-17 18:04:04","torrent":{"xt":"urn:btih:7a3f229d4c5fd4e34a3917e53cf4b740485ec25c","amp;dn":"Formula.1.2016x15.Singapore.Teds.Qualifying.Notebook.SkyF1.1080p","amp;tr":["udp%3A%2F%2Ftracker.leechers-paradise.org%3A6969","udp%3A%2F%2Fzer0day.ch%3A1337","udp%3A%2F%2Fopen.demonii.com%3A1337","udp%3A%2F%2Ftracker.coppersurfer.tk%3A6969","udp%3A%2F%2Fexodus.desync.com%3A6969"],"infoHash":"7a3f229d4c5fd4e34a3917e53cf4b740485ec25c","infoHashBuffer":{"type":"Buffer","data":[122,63,34,157,76,95,212,227,74,57,23,229,60,244,183,64,72,94,194,92]},"announce":[],"urlList":[]}}